<svg xmlns="http://www.w3.org/2000/svg" version="1.1" xmlns:xlink="http://www.w3.org/1999/xlink" xmlns:svgjs="http://svgjs.dev/svgjs" width="1000" height="623" viewBox="0 0 1000 623"><g transform="matrix(1,0,0,1,-0.6060606060606233,0.2522267206477409)"><svg viewBox="0 0 396 247" data-background-color="#ffffff" preserveAspectRatio="xMidYMid meet" height="623" width="1000" xmlns="http://www.w3.org/2000/svg" xmlns:xlink="http://www.w3.org/1999/xlink"><g id="tight-bounds" transform="matrix(1,0,0,1,0.2400000000000091,-0.09999999999999432)"><svg viewBox="0 0 395.52 247.2" height="247.2" width="395.52"><g><svg></svg></g><g><svg viewBox="0 0 395.52 247.2" height="247.2" width="395.52"><g transform="matrix(1,0,0,1,39.55199999999999,83.8004131455399)"><svg viewBox="0 0 316.416 79.59917370892018" height="79.59917370892018" width="316.416"><g><svg viewBox="0 0 316.416 79.59917370892018" height="79.59917370892018" width="316.416"><g><svg viewBox="0 0 316.416 79.59917370892018" height="79.59917370892018" width="316.416"><g><svg viewBox="0 0 316.416 79.59917370892018" height="79.59917370892018" width="316.416"><g><svg viewBox="0 0 316.416 79.59917370892018" height="79.59917370892018" width="316.416"><g><svg viewBox="0 0 316.416 79.59917370892018" height="79.59917370892018" width="316.416"><g transform="matrix(1,0,0,1,0,0)"><svg width="316.416" viewBox="2.5999999046325684 -31.75 127.79000091552734 32.150001525878906" height="79.59917370892018" data-palette-color="#e65728"><path d="M19.15-25.2Q23.55-25.2 25.7-22.58 27.85-19.95 27.85-14.6L27.85-14.6 27.85 0 18.95 0 18.95-14.2Q18.95-16.4 18.18-17.4 17.4-18.4 15.85-18.4L15.85-18.4Q13.85-18.4 12.68-17.13 11.5-15.85 11.5-13.7L11.5-13.7 11.5 0 2.6 0 2.6-24.6 11.25-24.6 11.25-21.3Q12.55-23.2 14.6-24.2 16.65-25.2 19.15-25.2L19.15-25.2ZM45.25 0.4Q41.2 0.4 38.12-1.18 35.05-2.75 33.37-5.65 31.7-8.55 31.7-12.45L31.7-12.45Q31.7-16.35 33.37-19.23 35.05-22.1 38.1-23.65 41.15-25.2 45.25-25.2L45.25-25.2Q49.35-25.2 52.4-23.65 55.45-22.1 57.12-19.23 58.8-16.35 58.8-12.45L58.8-12.45Q58.8-8.55 57.12-5.65 55.45-2.75 52.4-1.18 49.35 0.4 45.25 0.4L45.25 0.4ZM45.25-6.25Q50-6.25 50-12.45L50-12.45Q50-18.65 45.25-18.65L45.25-18.65Q40.5-18.65 40.5-12.45L40.5-12.45Q40.5-6.25 45.25-6.25L45.25-6.25ZM77.25-6Q78.35-6 79.7-6.15L79.7-6.15 79.25 0.2Q77.65 0.4 76.15 0.4L76.15 0.4Q70.15 0.4 67.42-2.13 64.7-4.65 64.7-9.95L64.7-9.95 64.7-18.05 60.1-18.05 60.1-24.6 64.7-24.6 64.7-31.75 73.6-31.75 73.6-24.6 79.5-24.6 79.5-18.05 73.6-18.05 73.6-9.9Q73.6-6 77.25-6L77.25-6ZM105.49-12.6L105.49-10.6 90.29-10.6Q90.69-8.2 92.04-7.15 93.39-6.1 95.89-6.1L95.89-6.1Q97.69-6.1 99.54-6.7 101.39-7.3 102.84-8.35L102.84-8.35 105.09-2.5Q103.24-1.15 100.64-0.38 98.04 0.4 95.44 0.4L95.44 0.4Q91.19 0.4 88.09-1.15 84.99-2.7 83.32-5.6 81.64-8.5 81.64-12.4L81.64-12.4Q81.64-16.1 83.22-19.03 84.79-21.95 87.62-23.58 90.44-25.2 93.99-25.2L93.99-25.2Q99.29-25.2 102.39-21.83 105.49-18.45 105.49-12.6L105.49-12.6ZM94.24-19.2Q90.69-19.2 90.19-14.8L90.19-14.8 98.04-14.8Q97.74-19.2 94.24-19.2L94.24-19.2ZM119.44 0.4Q115.89 0.4 112.89-0.35 109.89-1.1 107.84-2.55L107.84-2.55 110.09-8.6Q112.09-7.3 114.64-6.53 117.19-5.75 119.54-5.75L119.54-5.75Q120.99-5.75 121.79-6.18 122.59-6.6 122.59-7.35L122.59-7.35Q122.59-8 122.02-8.35 121.44-8.7 119.69-9.1L119.69-9.1 115.74-10Q111.99-10.85 110.34-12.5 108.69-14.15 108.69-17.2L108.69-17.2Q108.69-19.55 110.09-21.38 111.49-23.2 114.02-24.2 116.54-25.2 119.74-25.2L119.74-25.2Q122.39-25.2 125.02-24.43 127.64-23.65 129.79-22.25L129.79-22.25 127.49-16.45Q125.49-17.7 123.47-18.38 121.44-19.05 119.64-19.05L119.64-19.05Q118.19-19.05 117.39-18.6 116.59-18.15 116.59-17.3L116.59-17.3Q116.59-16.8 117.09-16.48 117.59-16.15 118.84-15.85L118.84-15.85 122.99-14.9Q126.89-14.05 128.64-12.28 130.39-10.5 130.39-7.45L130.39-7.45Q130.39-3.8 127.47-1.7 124.54 0.4 119.44 0.4L119.44 0.4Z" opacity="1" transform="matrix(1,0,0,1,0,0)" fill="#e65728" class="undefined-text-0" data-fill-palette-color="primary" id="text-0"></path></svg></g></svg></g></svg></g></svg></g><g></g></svg></g></svg></g></svg></g><g mask="url(#94b83743-b371-48c7-a82a-d4b3988847f0)"><g transform="matrix(2.7244492944874388, 0, 0, 2.7244492944874388, 97.40218977915322, 1)"><svg xmlns="http://www.w3.org/2000/svg" xmlns:xlink="http://www.w3.org/1999/xlink" version="1.1" x="0" y="0" viewBox="13.165998458862305 5.000165939331055 73.6719970703125 89.99983978271484" enable-background="new 0 0 100 100" xml:space="preserve" height="89.99983978271484" width="73.6719970703125" class="icon-none" data-fill-palette-color="accent" id="none"><g fill="#e65728" data-fill-palette-color="accent"><g fill="#e65728" data-fill-palette-color="accent"><path d="M24.755 35.325h47.038c1.617 0 2.94-1.33 2.94-2.947 0-1.617-1.323-2.947-2.94-2.947H24.755c-1.617 0-2.94 1.33-2.94 2.947C21.815 33.995 23.138 35.325 24.755 35.325z" fill="#e65728" data-fill-palette-color="accent"></path><path d="M75.463 41.219H24.755c-1.617 0-2.94 1.33-2.94 2.947s1.323 2.947 2.94 2.947h50.708c1.617 0 2.94-1.33 2.94-2.947S77.08 41.219 75.463 41.219z" fill="#e65728" data-fill-palette-color="accent"></path><path d="M72.586 53.006H24.755c-1.617 0-2.94 1.33-2.94 2.947 0 1.617 1.323 2.947 2.94 2.947h47.831c1.617 0 2.94-1.33 2.94-2.947C75.526 54.336 74.203 53.006 72.586 53.006z" fill="#e65728" data-fill-palette-color="accent"></path><path d="M44.259 64.794H24.777c-1.617 0-2.94 1.33-2.94 2.947 0 1.617 1.323 2.947 2.94 2.947h19.482c1.617 0 2.94-1.33 2.94-2.947C47.199 66.124 45.876 64.794 44.259 64.794z" fill="#e65728" data-fill-palette-color="accent"></path><path d="M77.432 9.328c0.5-2.215 0.187-3.874-0.828-4.256-1.281-0.483-3.368 1.521-4.736 4.468h-4.121c0.49-2.21 0.233-3.965-0.777-4.346-1.281-0.483-3.311 1.399-4.679 4.346H58.17c0.49-2.21 0.233-3.965-0.777-4.346-1.281-0.483-3.311 1.399-4.679 4.346h-4.121c0.49-2.21 0.233-3.965-0.777-4.346-1.281-0.483-3.311 1.399-4.679 4.346h-4.121c0.49-2.21 0.233-3.965-0.777-4.346-1.281-0.483-3.311 1.399-4.679 4.346h-4.121c0.49-2.21 0.233-3.965-0.777-4.346-1.281-0.483-3.311 1.399-4.679 4.346h-0.394c-5.673 0-10.423 4.029-10.423 9.702v64.832c0 5.673 4.75 10.926 10.423 10.926h53.044c5.673 0 10.205-5.253 10.205-10.926V19.242C86.836 13.802 82.759 9.66 77.432 9.328zM83.889 84.074c0 4.062-3.196 7.979-7.259 7.979H23.587c-4.062 0-7.476-3.917-7.476-7.979V19.242c0-3.849 3.156-6.683 6.956-6.97-0.482 2.186-0.279 4.06 0.727 4.439 1.281 0.483 3.255-1.277 4.623-4.224h4.121c-0.49 2.21-0.232 3.965 0.777 4.346 1.281 0.483 3.311-1.399 4.679-4.346h4.121c-0.49 2.21-0.232 3.965 0.777 4.346 1.281 0.483 3.311-1.399 4.679-4.346h4.121c-0.49 2.21-0.232 3.965 0.777 4.346 1.281 0.483 3.311-1.399 4.679-4.346h4.121c-0.49 2.21-0.232 3.965 0.777 4.346 1.281 0.483 3.311-1.399 4.679-4.346h4.121c-0.49 2.21-0.232 3.965 0.777 4.346 1.281 0.483 3.311-1.399 4.679-4.346h0.328c4.062 0 7.259 2.693 7.259 6.755V84.074z" fill="#e65728" data-fill-palette-color="accent"></path></g></g></svg></g></g></svg></g><defs><mask id="94b83743-b371-48c7-a82a-d4b3988847f0"><rect width="640" height="400" fill="white"></rect><rect width="348.05760000000004" height="117.18208277393425" fill="black" x="145.97119999999998" y="141.40895861303287" id="transform-me" transform="matrix(1,0,0,1,-122.24000000000001,-76.4)"></rect></mask></defs></svg><rect width="395.52" height="247.2" fill="none" stroke="none" visibility="hidden"></rect></g></svg></g></svg>